<mxfile host="app.diagrams.net" modified="2024-04-04T10:51:17.450Z" agent="Mozilla/5.0 (X11; Linux x86_64) AppleWebKit/537.36 (KHTML, like Gecko) Chrome/123.0.0.0 Safari/537.36" etag="PwQL6SO7esb7E0je-tUb" version="24.2.2" type="device">
  <diagram name="Page-1" id="XLHJtt5E27ApGSTVK5y7">
    <mxGraphModel dx="1949" dy="1084" grid="1" gridSize="10" guides="1" tooltips="1" connect="1" arrows="1" fold="1" page="1" pageScale="1" pageWidth="827" pageHeight="1169" math="0" shadow="0">
      <root>
        <mxCell id="0" />
        <mxCell id="1" parent="0" />
        <mxCell id="ayPxO36hG8dT26YRjF3L-7" value="" style="whiteSpace=wrap;html=1;aspect=fixed;" parent="1" vertex="1">
          <mxGeometry x="90" y="90" width="1015" height="1015" as="geometry" />
        </mxCell>
        <mxCell id="ayPxO36hG8dT26YRjF3L-8" value="&lt;font style=&quot;font-size: 20px;&quot;&gt;Diagramme de cas d&#39;utilisations&lt;/font&gt;" style="text;html=1;align=center;verticalAlign=middle;whiteSpace=wrap;rounded=0;" parent="1" vertex="1">
          <mxGeometry x="350" y="40" width="366" height="30" as="geometry" />
        </mxCell>
        <mxCell id="ayPxO36hG8dT26YRjF3L-9" value="admin client" style="shape=umlActor;verticalLabelPosition=bottom;verticalAlign=top;html=1;outlineConnect=0;" parent="1" vertex="1">
          <mxGeometry x="20" y="250" width="50" height="100" as="geometry" />
        </mxCell>
        <mxCell id="ayPxO36hG8dT26YRjF3L-11" value="client" style="shape=umlActor;verticalLabelPosition=bottom;verticalAlign=top;html=1;outlineConnect=0;" parent="1" vertex="1">
          <mxGeometry x="20" y="810" width="50" height="90" as="geometry" />
        </mxCell>
        <mxCell id="ayPxO36hG8dT26YRjF3L-15" value="" style="endArrow=classic;html=1;rounded=0;entryX=0.5;entryY=0;entryDx=0;entryDy=0;entryPerimeter=0;exitX=0.5;exitY=0.5;exitDx=0;exitDy=0;exitPerimeter=0;" parent="1" source="ayPxO36hG8dT26YRjF3L-9" target="ayPxO36hG8dT26YRjF3L-11" edge="1">
          <mxGeometry width="50" height="50" relative="1" as="geometry">
            <mxPoint x="80" y="620" as="sourcePoint" />
            <mxPoint x="400" y="480" as="targetPoint" />
          </mxGeometry>
        </mxCell>
        <mxCell id="U0SVPOKCEZnI3vGQQSTH-7" value="consulter un téléphone" style="ellipse;whiteSpace=wrap;html=1;" parent="1" vertex="1">
          <mxGeometry x="623" y="860" width="134" height="80" as="geometry" />
        </mxCell>
        <mxCell id="U0SVPOKCEZnI3vGQQSTH-11" value="creer un&amp;nbsp;&lt;div&gt;client&lt;/div&gt;" style="ellipse;whiteSpace=wrap;html=1;" parent="1" vertex="1">
          <mxGeometry x="110" y="110" width="120" height="80" as="geometry" />
        </mxCell>
        <mxCell id="U0SVPOKCEZnI3vGQQSTH-17" value="modifer un client" style="ellipse;whiteSpace=wrap;html=1;" parent="1" vertex="1">
          <mxGeometry x="430" y="110" width="120" height="80" as="geometry" />
        </mxCell>
        <mxCell id="U0SVPOKCEZnI3vGQQSTH-18" value="consulter la liste des téléphones" style="ellipse;whiteSpace=wrap;html=1;" parent="1" vertex="1">
          <mxGeometry x="623" y="760" width="144" height="80" as="geometry" />
        </mxCell>
        <mxCell id="U0SVPOKCEZnI3vGQQSTH-21" value="supprimer un client" style="ellipse;whiteSpace=wrap;html=1;" parent="1" vertex="1">
          <mxGeometry x="584" y="110" width="130" height="80" as="geometry" />
        </mxCell>
        <mxCell id="U0SVPOKCEZnI3vGQQSTH-23" value="modifier un telephone" style="ellipse;whiteSpace=wrap;html=1;" parent="1" vertex="1">
          <mxGeometry x="619" y="320" width="120" height="80" as="geometry" />
        </mxCell>
        <mxCell id="U0SVPOKCEZnI3vGQQSTH-24" value="supprimer un telephone" style="ellipse;whiteSpace=wrap;html=1;" parent="1" vertex="1">
          <mxGeometry x="619" y="420" width="120" height="80" as="geometry" />
        </mxCell>
        <mxCell id="0gLOlJeIZvDjMalIpP-v-28" value="consulter la liste des clients" style="ellipse;whiteSpace=wrap;html=1;" parent="1" vertex="1">
          <mxGeometry x="258" y="110" width="144" height="80" as="geometry" />
        </mxCell>
        <mxCell id="Qhx6stTs9FxfU0Fb_7Xq-3" value="" style="endArrow=classic;html=1;rounded=0;entryX=0;entryY=0.5;entryDx=0;entryDy=0;exitX=1;exitY=0.3333333333333333;exitDx=0;exitDy=0;exitPerimeter=0;" edge="1" parent="1" source="ayPxO36hG8dT26YRjF3L-9" target="ayPxO36hG8dT26YRjF3L-14">
          <mxGeometry width="50" height="50" relative="1" as="geometry">
            <mxPoint x="70" y="283" as="sourcePoint" />
            <mxPoint x="198" y="577" as="targetPoint" />
          </mxGeometry>
        </mxCell>
        <mxCell id="ayPxO36hG8dT26YRjF3L-14" value="se connecter à l&#39;api" style="ellipse;whiteSpace=wrap;html=1;" parent="1" vertex="1">
          <mxGeometry x="310" y="290" width="120" height="80" as="geometry" />
        </mxCell>
        <mxCell id="U0SVPOKCEZnI3vGQQSTH-22" value="creer un telephone" style="ellipse;whiteSpace=wrap;html=1;" parent="1" vertex="1">
          <mxGeometry x="610" y="220" width="120" height="80" as="geometry" />
        </mxCell>
        <mxCell id="Qhx6stTs9FxfU0Fb_7Xq-14" value="se connecter à l&#39;api" style="ellipse;whiteSpace=wrap;html=1;" vertex="1" parent="1">
          <mxGeometry x="350" y="770" width="120" height="80" as="geometry" />
        </mxCell>
        <mxCell id="Qhx6stTs9FxfU0Fb_7Xq-15" value="recuperer un token" style="ellipse;whiteSpace=wrap;html=1;" vertex="1" parent="1">
          <mxGeometry x="130" y="900" width="120" height="70" as="geometry" />
        </mxCell>
        <mxCell id="Qhx6stTs9FxfU0Fb_7Xq-16" value="" style="endArrow=classic;html=1;rounded=0;exitX=1;exitY=0.3333333333333333;exitDx=0;exitDy=0;exitPerimeter=0;entryX=0;entryY=0;entryDx=0;entryDy=0;" edge="1" parent="1" source="ayPxO36hG8dT26YRjF3L-11" target="Qhx6stTs9FxfU0Fb_7Xq-15">
          <mxGeometry width="50" height="50" relative="1" as="geometry">
            <mxPoint x="70" y="830" as="sourcePoint" />
            <mxPoint x="163" y="951" as="targetPoint" />
          </mxGeometry>
        </mxCell>
        <mxCell id="Qhx6stTs9FxfU0Fb_7Xq-17" value="" style="endArrow=classic;html=1;rounded=0;entryX=0;entryY=0.5;entryDx=0;entryDy=0;" edge="1" parent="1" target="Qhx6stTs9FxfU0Fb_7Xq-14">
          <mxGeometry width="50" height="50" relative="1" as="geometry">
            <mxPoint x="70" y="840" as="sourcePoint" />
            <mxPoint x="390" y="360" as="targetPoint" />
          </mxGeometry>
        </mxCell>
        <mxCell id="Qhx6stTs9FxfU0Fb_7Xq-18" value="creer un&amp;nbsp;&lt;div&gt;utilisateur&lt;/div&gt;" style="ellipse;whiteSpace=wrap;html=1;" vertex="1" parent="1">
          <mxGeometry x="130" y="650" width="120" height="80" as="geometry" />
        </mxCell>
        <mxCell id="Qhx6stTs9FxfU0Fb_7Xq-19" value="consulter la liste des utilisateurs" style="ellipse;whiteSpace=wrap;html=1;" vertex="1" parent="1">
          <mxGeometry x="286" y="650" width="144" height="80" as="geometry" />
        </mxCell>
        <mxCell id="Qhx6stTs9FxfU0Fb_7Xq-20" value="modifer son utilisateur" style="ellipse;whiteSpace=wrap;html=1;" vertex="1" parent="1">
          <mxGeometry x="470" y="650" width="120" height="80" as="geometry" />
        </mxCell>
        <mxCell id="Qhx6stTs9FxfU0Fb_7Xq-21" value="supprimer son utilisateurs" style="ellipse;whiteSpace=wrap;html=1;" vertex="1" parent="1">
          <mxGeometry x="614" y="640" width="130" height="80" as="geometry" />
        </mxCell>
        <mxCell id="Qhx6stTs9FxfU0Fb_7Xq-22" value="consulter la liste des clients" style="ellipse;whiteSpace=wrap;html=1;" vertex="1" parent="1">
          <mxGeometry x="320" y="940" width="134" height="80" as="geometry" />
        </mxCell>
        <mxCell id="Qhx6stTs9FxfU0Fb_7Xq-23" value="consulter le detail du client" style="ellipse;whiteSpace=wrap;html=1;" vertex="1" parent="1">
          <mxGeometry x="480" y="940" width="134" height="80" as="geometry" />
        </mxCell>
        <mxCell id="Qhx6stTs9FxfU0Fb_7Xq-24" value="" style="endArrow=classic;html=1;rounded=0;entryX=0;entryY=0;entryDx=0;entryDy=0;exitX=1;exitY=1;exitDx=0;exitDy=0;" edge="1" parent="1" source="Qhx6stTs9FxfU0Fb_7Xq-18" target="Qhx6stTs9FxfU0Fb_7Xq-14">
          <mxGeometry width="50" height="50" relative="1" as="geometry">
            <mxPoint x="80" y="850" as="sourcePoint" />
            <mxPoint x="360" y="820" as="targetPoint" />
          </mxGeometry>
        </mxCell>
        <mxCell id="Qhx6stTs9FxfU0Fb_7Xq-40" value="includ" style="edgeLabel;html=1;align=center;verticalAlign=middle;resizable=0;points=[];" vertex="1" connectable="0" parent="Qhx6stTs9FxfU0Fb_7Xq-24">
          <mxGeometry x="-0.2186" y="1" relative="1" as="geometry">
            <mxPoint x="-16" y="18" as="offset" />
          </mxGeometry>
        </mxCell>
        <mxCell id="Qhx6stTs9FxfU0Fb_7Xq-41" value="includ" style="edgeLabel;html=1;align=center;verticalAlign=middle;resizable=0;points=[];" vertex="1" connectable="0" parent="Qhx6stTs9FxfU0Fb_7Xq-24">
          <mxGeometry x="-0.2186" y="1" relative="1" as="geometry">
            <mxPoint x="94" y="128" as="offset" />
          </mxGeometry>
        </mxCell>
        <mxCell id="Qhx6stTs9FxfU0Fb_7Xq-42" value="includ" style="edgeLabel;html=1;align=center;verticalAlign=middle;resizable=0;points=[];" vertex="1" connectable="0" parent="Qhx6stTs9FxfU0Fb_7Xq-24">
          <mxGeometry x="-0.2186" y="1" relative="1" as="geometry">
            <mxPoint x="134" y="-2" as="offset" />
          </mxGeometry>
        </mxCell>
        <mxCell id="Qhx6stTs9FxfU0Fb_7Xq-43" value="includ" style="edgeLabel;html=1;align=center;verticalAlign=middle;resizable=0;points=[];" vertex="1" connectable="0" parent="Qhx6stTs9FxfU0Fb_7Xq-24">
          <mxGeometry x="-0.2186" y="1" relative="1" as="geometry">
            <mxPoint x="224" y="8" as="offset" />
          </mxGeometry>
        </mxCell>
        <mxCell id="Qhx6stTs9FxfU0Fb_7Xq-44" value="includ" style="edgeLabel;html=1;align=center;verticalAlign=middle;resizable=0;points=[];" vertex="1" connectable="0" parent="Qhx6stTs9FxfU0Fb_7Xq-24">
          <mxGeometry x="-0.2186" y="1" relative="1" as="geometry">
            <mxPoint x="244" y="38" as="offset" />
          </mxGeometry>
        </mxCell>
        <mxCell id="Qhx6stTs9FxfU0Fb_7Xq-45" value="includ" style="edgeLabel;html=1;align=center;verticalAlign=middle;resizable=0;points=[];" vertex="1" connectable="0" parent="Qhx6stTs9FxfU0Fb_7Xq-24">
          <mxGeometry x="-0.2186" y="1" relative="1" as="geometry">
            <mxPoint x="244" y="78" as="offset" />
          </mxGeometry>
        </mxCell>
        <mxCell id="Qhx6stTs9FxfU0Fb_7Xq-46" value="includ" style="edgeLabel;html=1;align=center;verticalAlign=middle;resizable=0;points=[];" vertex="1" connectable="0" parent="Qhx6stTs9FxfU0Fb_7Xq-24">
          <mxGeometry x="-0.2186" y="1" relative="1" as="geometry">
            <mxPoint x="224" y="128" as="offset" />
          </mxGeometry>
        </mxCell>
        <mxCell id="Qhx6stTs9FxfU0Fb_7Xq-47" value="includ" style="edgeLabel;html=1;align=center;verticalAlign=middle;resizable=0;points=[];" vertex="1" connectable="0" parent="Qhx6stTs9FxfU0Fb_7Xq-24">
          <mxGeometry x="-0.2186" y="1" relative="1" as="geometry">
            <mxPoint x="154" y="158" as="offset" />
          </mxGeometry>
        </mxCell>
        <mxCell id="Qhx6stTs9FxfU0Fb_7Xq-48" value="includ" style="edgeLabel;html=1;align=center;verticalAlign=middle;resizable=0;points=[];" vertex="1" connectable="0" parent="Qhx6stTs9FxfU0Fb_7Xq-24">
          <mxGeometry x="-0.2186" y="1" relative="1" as="geometry">
            <mxPoint x="164" y="-332" as="offset" />
          </mxGeometry>
        </mxCell>
        <mxCell id="Qhx6stTs9FxfU0Fb_7Xq-49" value="includ" style="edgeLabel;html=1;align=center;verticalAlign=middle;resizable=0;points=[];" vertex="1" connectable="0" parent="Qhx6stTs9FxfU0Fb_7Xq-24">
          <mxGeometry x="-0.2186" y="1" relative="1" as="geometry">
            <mxPoint x="234" y="-362" as="offset" />
          </mxGeometry>
        </mxCell>
        <mxCell id="Qhx6stTs9FxfU0Fb_7Xq-50" value="includ" style="edgeLabel;html=1;align=center;verticalAlign=middle;resizable=0;points=[];" vertex="1" connectable="0" parent="Qhx6stTs9FxfU0Fb_7Xq-24">
          <mxGeometry x="-0.2186" y="1" relative="1" as="geometry">
            <mxPoint x="254" y="-422" as="offset" />
          </mxGeometry>
        </mxCell>
        <mxCell id="Qhx6stTs9FxfU0Fb_7Xq-52" value="includ" style="edgeLabel;html=1;align=center;verticalAlign=middle;resizable=0;points=[];" vertex="1" connectable="0" parent="Qhx6stTs9FxfU0Fb_7Xq-24">
          <mxGeometry x="-0.2186" y="1" relative="1" as="geometry">
            <mxPoint x="244" y="-492" as="offset" />
          </mxGeometry>
        </mxCell>
        <mxCell id="Qhx6stTs9FxfU0Fb_7Xq-53" value="includ" style="edgeLabel;html=1;align=center;verticalAlign=middle;resizable=0;points=[];" vertex="1" connectable="0" parent="Qhx6stTs9FxfU0Fb_7Xq-24">
          <mxGeometry x="-0.2186" y="1" relative="1" as="geometry">
            <mxPoint x="184" y="-512" as="offset" />
          </mxGeometry>
        </mxCell>
        <mxCell id="Qhx6stTs9FxfU0Fb_7Xq-55" value="includ" style="edgeLabel;html=1;align=center;verticalAlign=middle;resizable=0;points=[];" vertex="1" connectable="0" parent="Qhx6stTs9FxfU0Fb_7Xq-24">
          <mxGeometry x="-0.2186" y="1" relative="1" as="geometry">
            <mxPoint x="84" y="-522" as="offset" />
          </mxGeometry>
        </mxCell>
        <mxCell id="Qhx6stTs9FxfU0Fb_7Xq-56" value="includ" style="edgeLabel;html=1;align=center;verticalAlign=middle;resizable=0;points=[];" vertex="1" connectable="0" parent="Qhx6stTs9FxfU0Fb_7Xq-24">
          <mxGeometry x="-0.2186" y="1" relative="1" as="geometry">
            <mxPoint x="14" y="-512" as="offset" />
          </mxGeometry>
        </mxCell>
        <mxCell id="Qhx6stTs9FxfU0Fb_7Xq-25" value="" style="endArrow=classic;html=1;rounded=0;entryX=0.5;entryY=0;entryDx=0;entryDy=0;exitX=0.749;exitY=0.918;exitDx=0;exitDy=0;exitPerimeter=0;" edge="1" parent="1" source="Qhx6stTs9FxfU0Fb_7Xq-19" target="Qhx6stTs9FxfU0Fb_7Xq-14">
          <mxGeometry width="50" height="50" relative="1" as="geometry">
            <mxPoint x="242" y="728" as="sourcePoint" />
            <mxPoint x="378" y="792" as="targetPoint" />
          </mxGeometry>
        </mxCell>
        <mxCell id="Qhx6stTs9FxfU0Fb_7Xq-26" value="" style="endArrow=classic;html=1;rounded=0;entryX=1;entryY=0;entryDx=0;entryDy=0;" edge="1" parent="1" source="Qhx6stTs9FxfU0Fb_7Xq-20" target="Qhx6stTs9FxfU0Fb_7Xq-14">
          <mxGeometry width="50" height="50" relative="1" as="geometry">
            <mxPoint x="404" y="733" as="sourcePoint" />
            <mxPoint x="420" y="780" as="targetPoint" />
          </mxGeometry>
        </mxCell>
        <mxCell id="Qhx6stTs9FxfU0Fb_7Xq-27" value="" style="endArrow=classic;html=1;rounded=0;entryX=1;entryY=0;entryDx=0;entryDy=0;" edge="1" parent="1" source="Qhx6stTs9FxfU0Fb_7Xq-21">
          <mxGeometry width="50" height="50" relative="1" as="geometry">
            <mxPoint x="511" y="735" as="sourcePoint" />
            <mxPoint x="462" y="792" as="targetPoint" />
          </mxGeometry>
        </mxCell>
        <mxCell id="Qhx6stTs9FxfU0Fb_7Xq-28" value="" style="endArrow=classic;html=1;rounded=0;entryX=1;entryY=0;entryDx=0;entryDy=0;" edge="1" parent="1" source="U0SVPOKCEZnI3vGQQSTH-18">
          <mxGeometry width="50" height="50" relative="1" as="geometry">
            <mxPoint x="639" y="716" as="sourcePoint" />
            <mxPoint x="472" y="802" as="targetPoint" />
          </mxGeometry>
        </mxCell>
        <mxCell id="Qhx6stTs9FxfU0Fb_7Xq-29" value="" style="endArrow=classic;html=1;rounded=0;entryX=0.944;entryY=0.698;entryDx=0;entryDy=0;exitX=0;exitY=0.5;exitDx=0;exitDy=0;entryPerimeter=0;" edge="1" parent="1" source="U0SVPOKCEZnI3vGQQSTH-7" target="Qhx6stTs9FxfU0Fb_7Xq-14">
          <mxGeometry width="50" height="50" relative="1" as="geometry">
            <mxPoint x="633" y="810" as="sourcePoint" />
            <mxPoint x="482" y="812" as="targetPoint" />
          </mxGeometry>
        </mxCell>
        <mxCell id="Qhx6stTs9FxfU0Fb_7Xq-30" value="" style="endArrow=classic;html=1;rounded=0;" edge="1" parent="1" source="Qhx6stTs9FxfU0Fb_7Xq-23" target="Qhx6stTs9FxfU0Fb_7Xq-14">
          <mxGeometry width="50" height="50" relative="1" as="geometry">
            <mxPoint x="633" y="910" as="sourcePoint" />
            <mxPoint x="473" y="836" as="targetPoint" />
          </mxGeometry>
        </mxCell>
        <mxCell id="Qhx6stTs9FxfU0Fb_7Xq-31" value="" style="endArrow=classic;html=1;rounded=0;exitX=0.647;exitY=0.043;exitDx=0;exitDy=0;exitPerimeter=0;" edge="1" parent="1" source="Qhx6stTs9FxfU0Fb_7Xq-22" target="Qhx6stTs9FxfU0Fb_7Xq-14">
          <mxGeometry width="50" height="50" relative="1" as="geometry">
            <mxPoint x="528" y="954" as="sourcePoint" />
            <mxPoint x="448" y="855" as="targetPoint" />
          </mxGeometry>
        </mxCell>
        <mxCell id="Qhx6stTs9FxfU0Fb_7Xq-33" value="" style="endArrow=classic;html=1;rounded=0;" edge="1" parent="1" source="U0SVPOKCEZnI3vGQQSTH-11" target="ayPxO36hG8dT26YRjF3L-14">
          <mxGeometry width="50" height="50" relative="1" as="geometry">
            <mxPoint x="242" y="728" as="sourcePoint" />
            <mxPoint x="378" y="792" as="targetPoint" />
          </mxGeometry>
        </mxCell>
        <mxCell id="Qhx6stTs9FxfU0Fb_7Xq-34" value="" style="endArrow=classic;html=1;rounded=0;entryX=0.434;entryY=0.007;entryDx=0;entryDy=0;entryPerimeter=0;" edge="1" parent="1" source="0gLOlJeIZvDjMalIpP-v-28" target="ayPxO36hG8dT26YRjF3L-14">
          <mxGeometry width="50" height="50" relative="1" as="geometry">
            <mxPoint x="216" y="192" as="sourcePoint" />
            <mxPoint x="344" y="308" as="targetPoint" />
          </mxGeometry>
        </mxCell>
        <mxCell id="Qhx6stTs9FxfU0Fb_7Xq-35" value="" style="endArrow=classic;html=1;rounded=0;entryX=0.748;entryY=-0.008;entryDx=0;entryDy=0;entryPerimeter=0;" edge="1" parent="1" source="U0SVPOKCEZnI3vGQQSTH-17" target="ayPxO36hG8dT26YRjF3L-14">
          <mxGeometry width="50" height="50" relative="1" as="geometry">
            <mxPoint x="349" y="200" as="sourcePoint" />
            <mxPoint x="372" y="301" as="targetPoint" />
          </mxGeometry>
        </mxCell>
        <mxCell id="Qhx6stTs9FxfU0Fb_7Xq-36" value="" style="endArrow=classic;html=1;rounded=0;entryX=0.748;entryY=-0.008;entryDx=0;entryDy=0;entryPerimeter=0;" edge="1" parent="1" source="U0SVPOKCEZnI3vGQQSTH-21">
          <mxGeometry width="50" height="50" relative="1" as="geometry">
            <mxPoint x="476" y="197" as="sourcePoint" />
            <mxPoint x="410" y="299" as="targetPoint" />
          </mxGeometry>
        </mxCell>
        <mxCell id="Qhx6stTs9FxfU0Fb_7Xq-37" value="" style="endArrow=classic;html=1;rounded=0;entryX=1;entryY=0.5;entryDx=0;entryDy=0;" edge="1" parent="1" source="U0SVPOKCEZnI3vGQQSTH-22" target="ayPxO36hG8dT26YRjF3L-14">
          <mxGeometry width="50" height="50" relative="1" as="geometry">
            <mxPoint x="613" y="188" as="sourcePoint" />
            <mxPoint x="420" y="309" as="targetPoint" />
          </mxGeometry>
        </mxCell>
        <mxCell id="Qhx6stTs9FxfU0Fb_7Xq-38" value="" style="endArrow=classic;html=1;rounded=0;entryX=0.924;entryY=0.86;entryDx=0;entryDy=0;entryPerimeter=0;" edge="1" parent="1" source="U0SVPOKCEZnI3vGQQSTH-23" target="ayPxO36hG8dT26YRjF3L-14">
          <mxGeometry width="50" height="50" relative="1" as="geometry">
            <mxPoint x="625" y="286" as="sourcePoint" />
            <mxPoint x="440" y="340" as="targetPoint" />
          </mxGeometry>
        </mxCell>
        <mxCell id="Qhx6stTs9FxfU0Fb_7Xq-39" value="" style="endArrow=classic;html=1;rounded=0;entryX=0.5;entryY=1;entryDx=0;entryDy=0;" edge="1" parent="1" source="U0SVPOKCEZnI3vGQQSTH-24" target="ayPxO36hG8dT26YRjF3L-14">
          <mxGeometry width="50" height="50" relative="1" as="geometry">
            <mxPoint x="629" y="370" as="sourcePoint" />
            <mxPoint x="431" y="369" as="targetPoint" />
          </mxGeometry>
        </mxCell>
      </root>
    </mxGraphModel>
  </diagram>
</mxfile>
